<svg xmlns="http://www.w3.org/2000/svg" xmlns:xlink="http://www.w3.org/1999/xlink" width="500" zoomAndPan="magnify" viewBox="0 0 375 374.999991" height="500" preserveAspectRatio="xMidYMid meet" version="1.0"><defs><g/><clipPath id="id1"><path d="M 80 142 L 302 142 L 302 330.746094 L 80 330.746094 Z M 80 142 " clip-rule="nonzero"/></clipPath><clipPath id="id2"><path d="M 45.175781 37.496094 L 336.925781 37.496094 L 336.925781 287 L 45.175781 287 Z M 45.175781 37.496094 " clip-rule="nonzero"/></clipPath></defs><g clip-path="url(#id1)"><path fill="#093b45" d="M 191.050781 330.699219 C 130.167969 330.699219 80.8125 281.402344 80.8125 220.589844 C 80.8125 190.042969 93.273438 162.402344 113.390625 142.457031 C 104.40625 156.632812 99.1875 173.425781 99.1875 191.441406 C 99.1875 242.121094 140.316406 283.199219 191.050781 283.199219 C 241.785156 283.199219 282.914062 242.121094 282.914062 191.441406 C 282.914062 173.425781 277.695312 156.632812 268.710938 142.457031 C 288.828125 162.402344 301.289062 190.042969 301.289062 220.589844 C 301.289062 281.402344 251.933594 330.699219 191.050781 330.699219 " fill-opacity="1" fill-rule="nonzero"/></g><g clip-path="url(#id2)"><path fill="#d68d46" d="M 191.050781 37.457031 C 110.519531 37.457031 45.234375 102.664062 45.234375 183.105469 C 45.234375 223.511719 61.714844 260.070312 88.324219 286.453125 C 76.441406 267.703125 69.539062 245.488281 69.539062 221.660156 C 69.539062 154.628906 123.941406 100.285156 191.050781 100.285156 C 258.160156 100.285156 312.5625 154.628906 312.5625 221.660156 C 312.5625 245.488281 305.65625 267.703125 293.777344 286.453125 C 320.382812 260.070312 336.867188 223.511719 336.867188 183.105469 C 336.867188 102.664062 271.582031 37.457031 191.050781 37.457031 " fill-opacity="1" fill-rule="nonzero"/></g><g fill="#1c191a" fill-opacity="1"><g transform="translate(105.762341, 237.093944)"><g><path d="M 39.988281 0.585938 C 42.132812 2.144531 43.890625 3.316406 45.253906 3.707031 C 45.839844 4.097656 46.425781 4.097656 46.816406 4.097656 C 47.207031 4.097656 47.402344 3.902344 47.402344 3.511719 C 47.402344 3.511719 47.011719 2.535156 46.230469 0.585938 C 45.449219 -0.976562 44.863281 -3.121094 44.28125 -5.851562 C 41.9375 -14.433594 41.160156 -21.847656 41.546875 -28.285156 C 41.9375 -34.527344 42.71875 -42.132812 44.085938 -50.71875 C 44.667969 -54.421875 45.253906 -57.738281 46.035156 -60.664062 C 46.621094 -63.394531 47.011719 -64.957031 47.402344 -65.152344 C 47.789062 -65.542969 49.742188 -66.125 53.644531 -67.101562 C 57.347656 -67.882812 61.445312 -68.859375 65.933594 -69.832031 C 68.273438 -70.222656 70.808594 -70.808594 73.148438 -71.199219 C 75.488281 -71.589844 77.441406 -71.785156 79.390625 -72.175781 C 83.097656 -72.5625 86.023438 -72.953125 87.972656 -73.34375 C 87 -74.515625 86.21875 -75.296875 85.828125 -75.878906 C 85.242188 -76.660156 84.464844 -77.441406 83.292969 -78.414062 C 82.121094 -79.390625 80.953125 -80.171875 79.78125 -80.953125 C 77.832031 -82.121094 76.269531 -82.707031 75.296875 -82.902344 C 74.125 -82.902344 71.589844 -82.707031 67.882812 -82.316406 C 65.738281 -81.925781 63.394531 -81.730469 61.054688 -81.34375 C 58.714844 -80.953125 56.765625 -80.5625 55.59375 -80.5625 C 54.226562 -80.171875 53.058594 -79.976562 52.277344 -79.976562 C 51.300781 -79.78125 50.71875 -79.78125 50.71875 -79.976562 C 50.523438 -80.171875 50.910156 -82.121094 51.886719 -85.828125 C 52.667969 -89.339844 53.835938 -93.4375 55.398438 -98.3125 C 56.179688 -100.652344 56.957031 -103.1875 57.738281 -105.921875 C 58.519531 -108.457031 59.300781 -110.992188 60.078125 -113.332031 C 61.640625 -118.210938 63.007812 -121.914062 63.980469 -124.644531 C 62.421875 -125.816406 61.445312 -126.597656 60.859375 -127.378906 C 60.078125 -128.15625 58.910156 -128.9375 57.738281 -129.914062 C 56.570312 -130.691406 55.398438 -131.277344 54.617188 -131.863281 L 51.496094 -133.425781 L 60.273438 -136.933594 C 73.34375 -142.007812 86.414062 -145.714844 99.679688 -148.054688 C 112.746094 -150.394531 126.402344 -151.175781 140.835938 -150.785156 C 150.589844 -150.394531 156.050781 -150.589844 157.222656 -151.175781 C 157.417969 -151.175781 157.417969 -151.371094 157.417969 -151.566406 C 157.417969 -152.34375 155.855469 -153.90625 152.734375 -156.246094 C 149.613281 -158.390625 145.519531 -159.953125 140.445312 -160.734375 C 136.933594 -161.125 132.253906 -161.511719 126.792969 -161.511719 C 123.867188 -161.511719 120.746094 -161.320312 117.429688 -161.320312 C 99.484375 -160.539062 82.121094 -157.808594 64.957031 -152.929688 C 47.789062 -147.859375 33.160156 -141.226562 21.066406 -133.425781 C 19.507812 -132.253906 17.945312 -131.082031 15.996094 -129.914062 C 14.042969 -128.351562 12.289062 -126.988281 10.535156 -125.425781 C 7.800781 -123.085938 5.265625 -121.136719 3.121094 -119.183594 C 0.976562 -117.234375 0 -116.257812 0 -115.867188 C 0 -115.089844 1.367188 -113.722656 4.097656 -111.382812 C 6.828125 -109.042969 8.972656 -107.480469 10.339844 -107.089844 C 11.3125 -106.699219 12.289062 -106.699219 13.070312 -107.089844 C 13.847656 -107.480469 15.410156 -108.847656 17.554688 -110.796875 C 18.726562 -111.96875 20.480469 -113.527344 22.824219 -115.28125 C 24.773438 -117.039062 26.722656 -118.597656 28.480469 -119.769531 C 31.796875 -122.304688 36.085938 -125.035156 41.160156 -127.960938 C 46.230469 -130.691406 48.960938 -132.058594 49.351562 -131.667969 C 49.351562 -131.472656 49.15625 -130.109375 48.375 -127.378906 C 47.597656 -124.453125 46.425781 -121.136719 45.253906 -117.429688 C 44.085938 -113.722656 42.71875 -109.042969 41.160156 -103.578125 C 39.597656 -98.117188 38.234375 -93.4375 37.257812 -89.535156 C 35.695312 -83.292969 34.527344 -78.414062 33.746094 -75.296875 C 28.285156 -73.539062 24.1875 -72.367188 21.652344 -71.589844 C 18.140625 -70.417969 15.214844 -69.246094 13.070312 -68.46875 C 10.730469 -67.492188 9.558594 -66.90625 9.558594 -66.515625 C 9.558594 -65.738281 10.535156 -64.566406 12.875 -62.8125 C 14.824219 -60.859375 16.96875 -59.496094 18.921875 -58.519531 C 19.703125 -58.128906 20.675781 -57.933594 21.652344 -57.933594 C 22.433594 -57.933594 23.601562 -58.128906 25.554688 -58.910156 C 26.722656 -59.300781 27.699219 -59.496094 28.675781 -59.886719 C 29.648438 -59.886719 30.234375 -59.886719 30.429688 -59.886719 C 29.453125 -49.15625 28.871094 -40.183594 28.675781 -33.160156 C 28.480469 -25.945312 29.453125 -18.335938 31.601562 -10.144531 C 32.769531 -6.632812 33.941406 -4.488281 35.113281 -3.316406 C 36.085938 -2.144531 37.648438 -0.78125 39.988281 0.585938 Z M 39.988281 0.585938 "/></g></g></g><g fill="#1c191a" fill-opacity="1"><g transform="translate(197.632301, 237.093944)"><g><path d="M 26.527344 -4.097656 C 28.871094 -2.535156 30.429688 -1.558594 31.40625 -1.558594 L 31.601562 -1.558594 C 32.378906 -1.558594 33.160156 -2.144531 33.746094 -3.511719 C 34.136719 -4.679688 35.113281 -9.558594 36.476562 -18.335938 C 37.648438 -27.113281 38.816406 -36.28125 39.988281 -45.839844 C 40.769531 -52.082031 41.355469 -57.933594 42.132812 -63.394531 C 42.523438 -68.664062 42.914062 -72.5625 43.109375 -75.101562 C 43.109375 -78.222656 43.304688 -80.953125 43.304688 -82.902344 C 43.304688 -84.074219 43.109375 -85.046875 43.109375 -85.828125 C 42.914062 -87.195312 42.328125 -88.753906 41.355469 -90.316406 C 39.792969 -92.460938 37.453125 -94.605469 34.332031 -96.753906 C 31.210938 -98.703125 28.675781 -99.875 26.917969 -99.875 C 25.164062 -99.875 22.433594 -98.117188 18.921875 -94.800781 C 15.410156 -91.289062 11.703125 -87 8.191406 -81.925781 C 6.242188 -79 4.875 -77.050781 4.488281 -75.878906 C 4.097656 -75.101562 4.097656 -74.515625 4.097656 -74.125 C 4.097656 -73.734375 4.097656 -73.34375 4.292969 -72.953125 C 4.875 -71.785156 6.4375 -70.222656 9.167969 -68.273438 C 11.898438 -66.320312 13.65625 -65.542969 14.824219 -65.542969 C 15.214844 -65.542969 16.191406 -66.125 17.554688 -67.492188 C 18.726562 -68.664062 20.285156 -70.417969 22.042969 -72.757812 C 23.40625 -74.710938 24.773438 -76.269531 25.945312 -77.636719 C 27.113281 -79 27.894531 -79.78125 28.089844 -79.78125 C 28.871094 -79.78125 29.066406 -77.441406 28.675781 -72.953125 C 28.285156 -68.46875 27.113281 -59.300781 25.164062 -45.644531 C 24.382812 -40.378906 23.601562 -35.890625 23.210938 -31.992188 C 22.628906 -28.089844 22.238281 -24.578125 22.042969 -21.847656 C 21.457031 -16.386719 21.457031 -12.484375 22.238281 -10.144531 C 22.824219 -7.800781 24.1875 -5.65625 26.527344 -4.097656 Z M 26.527344 -4.097656 "/></g></g></g><g fill="#1c191a" fill-opacity="1"><g transform="translate(157.734078, 268.698085)"><g><path d="M 4.953125 -11.6875 L 6.734375 -1.140625 L 4.09375 -0.6875 L 2.3125 -11.234375 L -1.53125 -10.59375 L -1.890625 -12.796875 L 8.3125 -14.515625 L 8.671875 -12.3125 Z M 4.953125 -11.6875 "/></g></g></g><g fill="#1c191a" fill-opacity="1"><g transform="translate(174.547677, 266.142023)"><g><path d="M 6.5 0 C 6.019531 0.03125 5.554688 0.0195312 5.109375 -0.03125 C 4.660156 -0.0820312 4.195312 -0.203125 3.71875 -0.390625 C 3.238281 -0.578125 2.816406 -0.820312 2.453125 -1.125 C 2.097656 -1.4375 1.789062 -1.859375 1.53125 -2.390625 C 1.269531 -2.921875 1.117188 -3.53125 1.078125 -4.21875 L 0.53125 -12.96875 L 3.171875 -13.140625 L 3.71875 -4.390625 C 3.769531 -3.617188 4.007812 -3.0625 4.4375 -2.71875 C 4.863281 -2.375 5.5 -2.226562 6.34375 -2.28125 C 7.164062 -2.332031 7.765625 -2.554688 8.140625 -2.953125 C 8.523438 -3.359375 8.691406 -3.941406 8.640625 -4.703125 L 8.09375 -13.453125 L 10.765625 -13.625 L 11.3125 -4.875 C 11.351562 -4.1875 11.28125 -3.5625 11.09375 -3 C 10.90625 -2.4375 10.648438 -1.976562 10.328125 -1.625 C 10.015625 -1.28125 9.632812 -0.984375 9.1875 -0.734375 C 8.738281 -0.484375 8.289062 -0.304688 7.84375 -0.203125 C 7.40625 -0.0976562 6.957031 -0.03125 6.5 0 Z M 6.5 0 "/></g></g></g><g fill="#1c191a" fill-opacity="1"><g transform="translate(193.459923, 265.266667)"><g><path d="M 1.59375 -2.796875 C 1.144531 -3.847656 0.953125 -5.019531 1.015625 -6.3125 C 1.078125 -7.613281 1.382812 -8.765625 1.9375 -9.765625 C 2.5 -10.765625 3.265625 -11.53125 4.234375 -12.0625 C 5.210938 -12.59375 6.3125 -12.828125 7.53125 -12.765625 C 9.40625 -12.671875 10.882812 -11.96875 11.96875 -10.65625 C 13.050781 -9.351562 13.546875 -7.675781 13.453125 -5.625 C 13.398438 -4.695312 13.207031 -3.832031 12.875 -3.03125 C 12.550781 -2.238281 12.109375 -1.550781 11.546875 -0.96875 C 10.992188 -0.394531 10.316406 0.0390625 9.515625 0.34375 C 8.710938 0.65625 7.835938 0.789062 6.890625 0.75 C 5.660156 0.6875 4.582031 0.34375 3.65625 -0.28125 C 2.738281 -0.914062 2.050781 -1.753906 1.59375 -2.796875 Z M 7.4375 -10.515625 C 6.375 -10.566406 5.492188 -10.191406 4.796875 -9.390625 C 4.109375 -8.597656 3.734375 -7.53125 3.671875 -6.1875 C 3.609375 -4.832031 3.878906 -3.726562 4.484375 -2.875 C 5.097656 -2.03125 5.9375 -1.582031 7 -1.53125 C 8.0625 -1.476562 8.941406 -1.84375 9.640625 -2.625 C 10.347656 -3.40625 10.734375 -4.453125 10.796875 -5.765625 C 10.859375 -7.160156 10.585938 -8.285156 9.984375 -9.140625 C 9.378906 -10.003906 8.53125 -10.460938 7.4375 -10.515625 Z M 7.4375 -10.515625 "/></g></g></g><g fill="#1c191a" fill-opacity="1"><g transform="translate(213.338656, 266.616719)"><g><path d="M 8.984375 -0.78125 C 9.035156 -1.132812 9.082031 -1.40625 9.125 -1.59375 C 9.164062 -1.789062 9.203125 -1.96875 9.234375 -2.125 C 9.316406 -2.65625 9.25 -3.0625 9.03125 -3.34375 C 8.8125 -3.632812 8.421875 -3.828125 7.859375 -3.921875 L 4.859375 -4.40625 L 4.03125 0.65625 L 1.40625 0.234375 L 3.484375 -12.515625 L 10.3125 -11.40625 C 10.832031 -11.320312 11.285156 -11.171875 11.671875 -10.953125 C 12.054688 -10.742188 12.351562 -10.5 12.5625 -10.21875 C 12.78125 -9.945312 12.941406 -9.640625 13.046875 -9.296875 C 13.160156 -8.953125 13.222656 -8.628906 13.234375 -8.328125 C 13.242188 -8.035156 13.222656 -7.734375 13.171875 -7.421875 C 12.921875 -5.867188 12.035156 -4.929688 10.515625 -4.609375 C 10.722656 -4.460938 10.890625 -4.347656 11.015625 -4.265625 C 11.140625 -4.191406 11.257812 -4.085938 11.375 -3.953125 C 11.5 -3.828125 11.585938 -3.722656 11.640625 -3.640625 C 11.703125 -3.554688 11.753906 -3.410156 11.796875 -3.203125 C 11.835938 -2.992188 11.859375 -2.8125 11.859375 -2.65625 C 11.859375 -2.5 11.847656 -2.25 11.828125 -1.90625 C 11.804688 -1.5625 11.769531 -1.238281 11.71875 -0.9375 C 11.675781 -0.644531 11.613281 -0.222656 11.53125 0.328125 C 11.476562 0.609375 11.484375 0.828125 11.546875 0.984375 C 11.609375 1.148438 11.734375 1.304688 11.921875 1.453125 L 11.84375 1.921875 L 9.015625 1.46875 C 8.921875 1.144531 8.863281 0.835938 8.84375 0.546875 C 8.832031 0.253906 8.878906 -0.1875 8.984375 -0.78125 Z M 10.5 -7.453125 C 10.550781 -7.796875 10.550781 -8.082031 10.5 -8.3125 C 10.457031 -8.550781 10.351562 -8.738281 10.1875 -8.875 C 10.03125 -9.019531 9.851562 -9.128906 9.65625 -9.203125 C 9.46875 -9.273438 9.21875 -9.335938 8.90625 -9.390625 L 5.75 -9.90625 L 5.203125 -6.578125 L 8.359375 -6.0625 C 8.660156 -6.019531 8.914062 -6 9.125 -6 C 9.34375 -6.007812 9.550781 -6.054688 9.75 -6.140625 C 9.945312 -6.222656 10.101562 -6.375 10.21875 -6.59375 C 10.34375 -6.8125 10.4375 -7.097656 10.5 -7.453125 Z M 10.5 -7.453125 "/></g></g></g><g fill="#f6e7d8" fill-opacity="1"><g transform="translate(96.545042, 248.962249)"><g><path d="M 9.953125 1.125 L 2.359375 4.84375 L 1.4375 2.953125 L 9.03125 -0.765625 L 7.671875 -3.546875 L 9.265625 -4.3125 L 12.859375 3.046875 L 11.265625 3.8125 Z M 9.953125 1.125 "/></g></g></g><g fill="#f6e7d8" fill-opacity="1"><g transform="translate(103.249848, 261.819505)"><g><path d="M 2.625 4.40625 C 2.414062 4.09375 2.234375 3.773438 2.078125 3.453125 C 1.929688 3.128906 1.820312 2.765625 1.75 2.359375 C 1.6875 1.953125 1.6875 1.566406 1.75 1.203125 C 1.820312 0.835938 1.984375 0.457031 2.234375 0.0625 C 2.492188 -0.320312 2.847656 -0.671875 3.296875 -0.984375 L 9.03125 -4.890625 L 10.234375 -3.140625 L 4.5 0.765625 C 4 1.117188 3.710938 1.503906 3.640625 1.921875 C 3.578125 2.347656 3.734375 2.835938 4.109375 3.390625 C 4.472656 3.921875 4.867188 4.234375 5.296875 4.328125 C 5.722656 4.429688 6.1875 4.304688 6.6875 3.953125 L 12.421875 0.046875 L 13.609375 1.796875 L 7.875 5.703125 C 7.425781 6.015625 6.972656 6.21875 6.515625 6.3125 C 6.054688 6.414062 5.644531 6.425781 5.28125 6.34375 C 4.914062 6.269531 4.554688 6.132812 4.203125 5.9375 C 3.859375 5.738281 3.5625 5.507812 3.3125 5.25 C 3.0625 4.988281 2.832031 4.707031 2.625 4.40625 Z M 2.625 4.40625 "/></g></g></g><g fill="#f6e7d8" fill-opacity="1"><g transform="translate(112.709375, 274.832966)"><g><path d="M 6 3.828125 C 6.195312 3.640625 6.351562 3.492188 6.46875 3.390625 C 6.59375 3.285156 6.703125 3.191406 6.796875 3.109375 C 7.109375 2.816406 7.265625 2.53125 7.265625 2.25 C 7.265625 1.976562 7.109375 1.675781 6.796875 1.34375 L 5.15625 -0.421875 L 2.203125 2.34375 L 0.765625 0.828125 L 8.21875 -6.15625 L 11.96875 -2.171875 C 12.25 -1.867188 12.457031 -1.554688 12.59375 -1.234375 C 12.738281 -0.910156 12.804688 -0.609375 12.796875 -0.328125 C 12.785156 -0.0546875 12.734375 0.207031 12.640625 0.46875 C 12.546875 0.738281 12.425781 0.96875 12.28125 1.15625 C 12.144531 1.351562 11.988281 1.539062 11.8125 1.71875 C 10.90625 2.5625 9.90625 2.710938 8.8125 2.171875 C 8.875 2.359375 8.921875 2.503906 8.953125 2.609375 C 8.992188 2.722656 9.019531 2.851562 9.03125 3 C 9.050781 3.144531 9.054688 3.253906 9.046875 3.328125 C 9.035156 3.410156 8.988281 3.523438 8.90625 3.671875 C 8.832031 3.828125 8.757812 3.953125 8.6875 4.046875 C 8.613281 4.148438 8.484375 4.300781 8.296875 4.5 C 8.117188 4.695312 7.945312 4.878906 7.78125 5.046875 C 7.613281 5.222656 7.375 5.460938 7.0625 5.765625 C 6.894531 5.921875 6.789062 6.0625 6.75 6.1875 C 6.707031 6.3125 6.710938 6.472656 6.765625 6.671875 L 6.484375 6.921875 L 4.9375 5.265625 C 5.03125 5.003906 5.140625 4.78125 5.265625 4.59375 C 5.398438 4.414062 5.644531 4.160156 6 3.828125 Z M 10.15625 0.390625 C 10.363281 0.203125 10.507812 0.0234375 10.59375 -0.140625 C 10.675781 -0.316406 10.695312 -0.484375 10.65625 -0.640625 C 10.625 -0.804688 10.566406 -0.957031 10.484375 -1.09375 C 10.398438 -1.238281 10.273438 -1.40625 10.109375 -1.59375 L 8.375 -3.4375 L 6.4375 -1.625 L 8.171875 0.21875 C 8.328125 0.394531 8.472656 0.535156 8.609375 0.640625 C 8.742188 0.742188 8.890625 0.816406 9.046875 0.859375 C 9.210938 0.898438 9.390625 0.878906 9.578125 0.796875 C 9.765625 0.722656 9.957031 0.585938 10.15625 0.390625 Z M 10.15625 0.390625 "/></g></g></g><g fill="#f6e7d8" fill-opacity="1"><g transform="translate(124.006777, 286.08206)"><g><path d="M 8.84375 -5.9375 L 2.296875 1.90625 L 0.671875 0.5625 L 7.21875 -7.28125 Z M 8.84375 -5.9375 "/></g></g></g><g fill="#f6e7d8" fill-opacity="1"><g transform="translate(131.593972, 292.172159)"><g><path d="M 11 -1.3125 L 9.34375 -2.390625 C 9.601562 -2.835938 9.65625 -3.273438 9.5 -3.703125 C 9.34375 -4.140625 8.988281 -4.539062 8.4375 -4.90625 C 7.976562 -5.195312 7.550781 -5.332031 7.15625 -5.3125 C 6.769531 -5.289062 6.46875 -5.113281 6.25 -4.78125 C 6.050781 -4.476562 6.015625 -4.175781 6.140625 -3.875 C 6.265625 -3.570312 6.601562 -3.160156 7.15625 -2.640625 L 8.3125 -1.5 C 9.007812 -0.832031 9.414062 -0.195312 9.53125 0.40625 C 9.644531 1.007812 9.484375 1.648438 9.046875 2.328125 C 8.484375 3.191406 7.734375 3.664062 6.796875 3.75 C 5.867188 3.84375 4.851562 3.53125 3.75 2.8125 C 2.65625 2.101562 1.960938 1.304688 1.671875 0.421875 C 1.378906 -0.453125 1.5 -1.359375 2.03125 -2.296875 L 3.734375 -1.1875 C 3.484375 -0.71875 3.4375 -0.253906 3.59375 0.203125 C 3.757812 0.660156 4.144531 1.082031 4.75 1.46875 C 5.28125 1.820312 5.769531 2 6.21875 2 C 6.664062 2 7.003906 1.816406 7.234375 1.453125 C 7.460938 1.109375 7.515625 0.765625 7.390625 0.421875 C 7.265625 0.078125 6.945312 -0.34375 6.4375 -0.84375 L 5.390625 -1.859375 C 4.628906 -2.585938 4.175781 -3.242188 4.03125 -3.828125 C 3.894531 -4.421875 4.039062 -5.050781 4.46875 -5.71875 C 5.019531 -6.5625 5.722656 -7.023438 6.578125 -7.109375 C 7.441406 -7.203125 8.390625 -6.914062 9.421875 -6.25 C 9.628906 -6.113281 9.820312 -5.972656 10 -5.828125 C 10.1875 -5.679688 10.378906 -5.503906 10.578125 -5.296875 C 10.773438 -5.097656 10.941406 -4.890625 11.078125 -4.671875 C 11.210938 -4.460938 11.328125 -4.226562 11.421875 -3.96875 C 11.515625 -3.707031 11.566406 -3.441406 11.578125 -3.171875 C 11.597656 -2.898438 11.554688 -2.601562 11.453125 -2.28125 C 11.359375 -1.957031 11.207031 -1.632812 11 -1.3125 Z M 11 -1.3125 "/></g></g></g><g fill="#f6e7d8" fill-opacity="1"><g transform="translate(144.657852, 300.214876)"><g><path d="M 6 -6.03125 L 2.765625 1.234375 L 0.84375 0.375 L 5.015625 -8.953125 L 7.875 -7.671875 L 6.25 0.5 L 11.203125 -6.1875 L 14.09375 -4.90625 L 9.921875 4.421875 L 8 3.578125 L 11.234375 -3.6875 L 6.359375 2.84375 L 4.4375 1.984375 Z M 6 -6.03125 "/></g></g></g><g fill="#f6e7d8" fill-opacity="1"><g transform="translate(161.017417, 306.935677)"><g><path d="M 1.6875 -1.90625 C 1.507812 -2.789062 1.550781 -3.726562 1.8125 -4.71875 C 2.070312 -5.71875 2.492188 -6.554688 3.078125 -7.234375 C 3.660156 -7.921875 4.375 -8.390625 5.21875 -8.640625 C 6.0625 -8.898438 6.953125 -8.910156 7.890625 -8.671875 C 9.316406 -8.296875 10.34375 -7.507812 10.96875 -6.3125 C 11.59375 -5.125 11.703125 -3.742188 11.296875 -2.171875 C 11.109375 -1.460938 10.820312 -0.828125 10.4375 -0.265625 C 10.0625 0.296875 9.613281 0.753906 9.09375 1.109375 C 8.570312 1.472656 7.972656 1.703125 7.296875 1.796875 C 6.628906 1.898438 5.9375 1.859375 5.21875 1.671875 C 4.269531 1.429688 3.488281 0.992188 2.875 0.359375 C 2.257812 -0.273438 1.863281 -1.03125 1.6875 -1.90625 Z M 7.46875 -6.9375 C 6.644531 -7.144531 5.898438 -7 5.234375 -6.5 C 4.578125 -6 4.113281 -5.234375 3.84375 -4.203125 C 3.570312 -3.160156 3.601562 -2.257812 3.9375 -1.5 C 4.269531 -0.75 4.847656 -0.269531 5.671875 -0.0625 C 6.484375 0.15625 7.222656 0.0195312 7.890625 -0.46875 C 8.554688 -0.957031 9.019531 -1.707031 9.28125 -2.71875 C 9.5625 -3.78125 9.535156 -4.691406 9.203125 -5.453125 C 8.878906 -6.222656 8.300781 -6.71875 7.46875 -6.9375 Z M 7.46875 -6.9375 "/></g></g></g><g fill="#f6e7d8" fill-opacity="1"><g transform="translate(177.358724, 310.584624)"><g/></g></g><g fill="#f6e7d8" fill-opacity="1"><g transform="translate(187.028871, 311.650151)"><g><path d="M 3.265625 -4.359375 L 3.234375 -1.71875 L 8.75 -1.65625 L 8.734375 0.09375 L 1.109375 0.015625 L 1.21875 -10.203125 L 8.59375 -10.125 L 8.578125 -8.359375 L 3.3125 -8.421875 L 3.28125 -6.109375 L 8.15625 -6.0625 L 8.140625 -4.3125 Z M 3.265625 -4.359375 "/></g></g></g><g fill="#f6e7d8" fill-opacity="1"><g transform="translate(202.182484, 311.298944)"><g/></g></g><g fill="#f6e7d8" fill-opacity="1"><g transform="translate(211.832418, 310.063785)"><g><path d="M 5.421875 -1.25 L 3.6875 -0.84375 L -1.984375 -10.03125 L 0.078125 -10.5 L 4.03125 -3.515625 L 4.484375 -11.515625 L 6.515625 -11.984375 Z M 5.421875 -1.25 "/></g></g></g><g fill="#f6e7d8" fill-opacity="1"><g transform="translate(226.480037, 306.164929)"><g><path d="M -0.640625 -10.625 L 2.8125 -1.015625 L 0.828125 -0.296875 L -2.625 -9.90625 Z M -0.640625 -10.625 "/></g></g></g><g fill="#f6e7d8" fill-opacity="1"><g transform="translate(235.593614, 302.708161)"><g><path d="M 5.34375 -4.984375 L 1.921875 -3.265625 L 2.234375 -1.125 L 0.328125 -0.15625 L -1.03125 -10.921875 L 1.03125 -11.96875 L 8.78125 -4.4375 L 6.859375 -3.46875 Z M 4.03125 -6.3125 L 1.0625 -9.265625 L 1.65625 -5.109375 Z M 4.03125 -6.3125 "/></g></g></g><g fill="#f6e7d8" fill-opacity="1"><g transform="translate(249.768078, 295.056759)"><g><path d="M 2.421875 -10.3125 C 2.003906 -10.59375 1.546875 -10.742188 1.046875 -10.765625 C 0.546875 -10.796875 0.0195312 -10.613281 -0.53125 -10.21875 C -1.25 -9.695312 -1.628906 -9.03125 -1.671875 -8.21875 C -1.710938 -7.414062 -1.410156 -6.570312 -0.765625 -5.6875 C -0.148438 -4.832031 0.566406 -4.289062 1.390625 -4.0625 C 2.222656 -3.84375 2.976562 -3.976562 3.65625 -4.46875 C 3.769531 -4.550781 3.890625 -4.65625 4.015625 -4.78125 C 4.140625 -4.90625 4.269531 -5.078125 4.40625 -5.296875 C 4.550781 -5.523438 4.65625 -5.765625 4.71875 -6.015625 C 4.789062 -6.265625 4.8125 -6.546875 4.78125 -6.859375 C 4.757812 -7.179688 4.65625 -7.503906 4.46875 -7.828125 L 2.5625 -6.453125 L 1.546875 -7.875 L 4.875 -10.28125 L 8.09375 -5.796875 L 7.078125 -5.0625 L 6.078125 -6 C 6.085938 -5.3125 5.972656 -4.71875 5.734375 -4.21875 C 5.492188 -3.726562 5.09375 -3.285156 4.53125 -2.890625 C 3.800781 -2.359375 3.003906 -2.0625 2.140625 -2 C 1.285156 -1.9375 0.457031 -2.117188 -0.34375 -2.546875 C -1.15625 -2.972656 -1.859375 -3.597656 -2.453125 -4.421875 C -3.378906 -5.703125 -3.757812 -7.015625 -3.59375 -8.359375 C -3.4375 -9.703125 -2.769531 -10.796875 -1.59375 -11.640625 C -0.582031 -12.367188 0.421875 -12.710938 1.421875 -12.671875 C 2.429688 -12.640625 3.296875 -12.238281 4.015625 -11.46875 Z M 2.421875 -10.3125 "/></g></g></g><g fill="#f6e7d8" fill-opacity="1"><g transform="translate(263.142626, 284.77317)"><g><path d="M -0.78125 -5.390625 L 1.0625 -3.515625 L 4.984375 -7.375 L 6.21875 -6.125 L 0.796875 -0.78125 L -6.375 -8.0625 L -1.125 -13.234375 L 0.109375 -11.96875 L -3.640625 -8.28125 L -2.015625 -6.640625 L 1.453125 -10.0625 L 2.6875 -8.8125 Z M -0.78125 -5.390625 "/></g></g></g><g fill="#f6e7d8" fill-opacity="1"><g transform="translate(273.747592, 273.741732)"><g><path d="M 4.28125 -5.71875 L -3.8125 -6.671875 L 1.828125 -2.4375 L 0.578125 -0.765625 L -7.59375 -6.890625 L -6.3125 -8.609375 L 1.671875 -7.671875 L -3.890625 -11.84375 L -2.625 -13.53125 L 5.546875 -7.40625 Z M 4.28125 -5.71875 "/></g></g></g><g fill="#f6e7d8" fill-opacity="1"><g transform="translate(283.004617, 260.605428)"><g><path d="M -2.21875 -10.84375 L -3.15625 -9.109375 C -3.625 -9.328125 -4.0625 -9.34375 -4.46875 -9.15625 C -4.882812 -8.96875 -5.253906 -8.578125 -5.578125 -7.984375 C -5.828125 -7.515625 -5.925781 -7.082031 -5.875 -6.6875 C -5.832031 -6.300781 -5.632812 -6.015625 -5.28125 -5.828125 C -4.957031 -5.660156 -4.65625 -5.648438 -4.375 -5.796875 C -4.09375 -5.953125 -3.707031 -6.320312 -3.21875 -6.90625 L -2.1875 -8.171875 C -1.570312 -8.910156 -0.96875 -9.363281 -0.375 -9.53125 C 0.21875 -9.695312 0.867188 -9.59375 1.578125 -9.21875 C 2.484375 -8.726562 3.019531 -8.019531 3.1875 -7.09375 C 3.351562 -6.175781 3.125 -5.132812 2.5 -3.96875 C 1.882812 -2.820312 1.148438 -2.066406 0.296875 -1.703125 C -0.554688 -1.335938 -1.476562 -1.382812 -2.46875 -1.84375 L -1.515625 -3.625 C -1.015625 -3.40625 -0.539062 -3.398438 -0.09375 -3.609375 C 0.34375 -3.816406 0.734375 -4.234375 1.078125 -4.859375 C 1.378906 -5.421875 1.507812 -5.921875 1.46875 -6.359375 C 1.4375 -6.796875 1.234375 -7.117188 0.859375 -7.328125 C 0.492188 -7.523438 0.144531 -7.546875 -0.1875 -7.390625 C -0.519531 -7.242188 -0.914062 -6.894531 -1.375 -6.34375 L -2.3125 -5.21875 C -2.96875 -4.40625 -3.582031 -3.90625 -4.15625 -3.71875 C -4.738281 -3.53125 -5.378906 -3.625 -6.078125 -4 C -6.953125 -4.46875 -7.46875 -5.128906 -7.625 -5.984375 C -7.789062 -6.835938 -7.582031 -7.804688 -7 -8.890625 C -6.882812 -9.097656 -6.757812 -9.296875 -6.625 -9.484375 C -6.5 -9.679688 -6.34375 -9.882812 -6.15625 -10.09375 C -5.96875 -10.3125 -5.773438 -10.5 -5.578125 -10.65625 C -5.378906 -10.8125 -5.148438 -10.945312 -4.890625 -11.0625 C -4.640625 -11.175781 -4.378906 -11.25 -4.109375 -11.28125 C -3.847656 -11.3125 -3.550781 -11.289062 -3.21875 -11.21875 C -2.882812 -11.15625 -2.550781 -11.03125 -2.21875 -10.84375 Z M -2.21875 -10.84375 "/></g></g></g></svg>